<svg fill="#000000" xmlns="http://www.w3.org/2000/svg"  viewBox="0 0 50 50" width="250px" height="250px"><path d="M 25 2 C 12.296875 2 2 12.296875 2 25 C 2 37.703125 12.296875 48 25 48 C 37.703125 48 48 37.703125 48 25 C 48 12.296875 37.703125 2 25 2 Z M 25 4 C 36.578125 4 46 13.421875 46 25 C 46 36.578125 36.578125 46 25 46 C 13.421875 46 4 36.578125 4 25 C 4 13.421875 13.421875 4 25 4 Z M 25 8 C 20.035156 8 16 12.035156 16 17 L 16 21 L 22 21 L 22 17 C 22 15.347656 23.347656 14 25 14 C 26.652344 14 28 15.347656 28 17 L 28 21 L 34 21 L 34 17 C 34 12.035156 29.964844 8 25 8 Z M 25 10 C 28.867188 10 32 13.132813 32 17 L 32 19 L 30 19 L 30 17 C 30 14.238281 27.761719 12 25 12 C 22.238281 12 20 14.238281 20 17 L 20 19 L 18 19 L 18 17 C 18 13.132813 21.132813 10 25 10 Z M 16 22 C 13.792969 22 12 23.792969 12 26 L 12 36 C 12 38.207031 13.792969 40 16 40 L 34 40 C 36.207031 40 38 38.207031 38 36 L 38 26 C 38 23.792969 36.207031 22 34 22 Z M 16 24 L 34 24 C 35.105469 24 36 24.894531 36 26 L 36 36 C 36 37.105469 35.105469 38 34 38 L 16 38 C 14.894531 38 14 37.105469 14 36 L 14 26 C 14 24.894531 14.894531 24 16 24 Z M 17 26 C 16.449219 26 16 26.449219 16 27 L 16 35 C 16 35.550781 16.449219 36 17 36 C 17.550781 36 18 35.550781 18 35 L 18 27 C 18 26.449219 17.550781 26 17 26 Z M 25 26 C 23.894531 26 23 26.894531 23 28 C 23 28.714844 23.382813 29.375 24 29.730469 L 24 35 L 26 35 L 26 29.730469 C 26.617188 29.371094 27 28.714844 27 28 C 27 26.894531 26.105469 26 25 26 Z"/></svg>